<svg xmlns="http://www.w3.org/2000/svg" xmlns:xlink="http://www.w3.org/1999/xlink" contentStyleType="text/css" height="668px" preserveAspectRatio="none" style="width:1381px;height:668px;background:#FFFFFF;" version="1.1" viewBox="0 0 1381 668" width="1381px" zoomAndPan="magnify"><defs/><g><!--cluster d77d5e503ad1439f585ac494268b351b--><g id="cluster_d77d5e503ad1439f585ac494268b351b"><polygon fill="none" points="16,16,26,6,422,6,422,550.37,412,560.37,16,560.37,16,16" style="stroke:#181818;stroke-width:1.0;"/><line style="stroke:#181818;stroke-width:1.0;" x1="412" x2="422" y1="16" y2="6"/><line style="stroke:#181818;stroke-width:1.0;" x1="16" x2="412" y1="16" y2="16"/><line style="stroke:#181818;stroke-width:1.0;" x1="412" x2="412" y1="16" y2="560.37"/><text fill="#000000" font-family="sans-serif" font-size="14" font-weight="bold" lengthAdjust="spacing" textLength="21" x="204.5" y="31.9951">Db</text></g><!--cluster 2567a5ec9705eb7ac2c984033e06189d--><g id="cluster_2567a5ec9705eb7ac2c984033e06189d"><polygon fill="none" points="446,40.44,456,30.44,708,30.44,708,550.37,698,560.37,446,560.37,446,40.44" style="stroke:#181818;stroke-width:1.0;"/><line style="stroke:#181818;stroke-width:1.0;" x1="698" x2="708" y1="40.44" y2="30.44"/><line style="stroke:#181818;stroke-width:1.0;" x1="446" x2="698" y1="40.44" y2="40.44"/><line style="stroke:#181818;stroke-width:1.0;" x1="698" x2="698" y1="40.44" y2="560.37"/><text fill="#000000" font-family="sans-serif" font-size="14" font-weight="bold" lengthAdjust="spacing" textLength="35" x="555.5" y="56.4351">Web</text></g><!--cluster 2a8c49fd4082374a925dda429bed48f4--><g id="cluster_2a8c49fd4082374a925dda429bed48f4"><polygon fill="none" points="794,48.59,804,38.59,1364,38.59,1364,550.37,1354,560.37,794,560.37,794,48.59" style="stroke:#181818;stroke-width:1.0;"/><line style="stroke:#181818;stroke-width:1.0;" x1="1354" x2="1364" y1="48.59" y2="38.59"/><line style="stroke:#181818;stroke-width:1.0;" x1="794" x2="1354" y1="48.59" y2="48.59"/><line style="stroke:#181818;stroke-width:1.0;" x1="1354" x2="1354" y1="48.59" y2="560.37"/><text fill="#000000" font-family="sans-serif" font-size="14" font-weight="bold" lengthAdjust="spacing" textLength="65" x="1042.5" y="64.5851">Tailwind</text></g><!--entity 355aeb7ac3f8fa43e8d94fbf0e4b8d6c--><g id="elem_355aeb7ac3f8fa43e8d94fbf0e4b8d6c"><rect fill="#F1F1F1" height="144.0781" rx="2.5" ry="2.5" style="stroke:#181818;stroke-width:0.5;" width="375" x="31.5" y="46"/><rect fill="#F1F1F1" height="10" style="stroke:#181818;stroke-width:0.5;" width="15" x="386.5" y="51"/><rect fill="#F1F1F1" height="2" style="stroke:#181818;stroke-width:0.5;" width="4" x="384.5" y="53"/><rect fill="#F1F1F1" height="2" style="stroke:#181818;stroke-width:0.5;" width="4" x="384.5" y="57"/><text fill="#000000" font-family="sans-serif" font-size="14" font-weight="bold" lengthAdjust="spacing" textLength="20" x="46.5" y="78.9951">db</text><text fill="#000000" font-family="sans-serif" font-size="14" lengthAdjust="spacing" textLength="4" x="46.5" y="95.292">&#160;</text><text fill="#000000" font-family="sans-serif" font-size="14" lengthAdjust="spacing" textLength="182" x="46.5" y="111.5889">image: postgres:14-alpine</text><text fill="#000000" font-family="sans-serif" font-size="14" lengthAdjust="spacing" textLength="292" x="46.5" y="127.8857">environment: POSTGRES_USER=postgres</text><text fill="#000000" font-family="sans-serif" font-size="14" lengthAdjust="spacing" textLength="335" x="46.5" y="144.1826">environment: POSTGRES_PASSWORD=postgres</text><text fill="#000000" font-family="sans-serif" font-size="14" lengthAdjust="spacing" textLength="275" x="46.5" y="160.4795">environment: POSTGRES_DB=postgres</text><text fill="#000000" font-family="sans-serif" font-size="14" lengthAdjust="spacing" textLength="4" x="46.5" y="176.7764">&#160;</text></g><!--entity a6bcfd94783d6e8f719cef1ba92ab15b--><g id="elem_a6bcfd94783d6e8f719cef1ba92ab15b"><rect fill="#F1F1F1" height="39.2969" rx="2.5" ry="2.5" style="stroke:#181818;stroke-width:0.5;" width="194" x="122" y="505.08"/><polygon fill="#F1F1F1" points="299,510.08,299,524.08,311,524.08,311,516.08,305,510.08,299,510.08" style="stroke:#181818;stroke-width:0.5;"/><line style="stroke:#181818;stroke-width:0.5;" x1="305" x2="305" y1="510.08" y2="516.08"/><line style="stroke:#181818;stroke-width:0.5;" x1="311" x2="305" y1="516.08" y2="516.08"/><text fill="#000000" font-family="sans-serif" font-size="14" lengthAdjust="spacing" textLength="164" x="132" y="531.0751">/var/lib/postgresql/data/</text></g><!--entity 04a565d19766ebe0348853b17c395bd1--><g id="elem_04a565d19766ebe0348853b17c395bd1"><rect fill="#F1F1F1" height="95.1875" rx="2.5" ry="2.5" style="stroke:#181818;stroke-width:0.5;" width="231" x="461.5" y="70.44"/><rect fill="#F1F1F1" height="10" style="stroke:#181818;stroke-width:0.5;" width="15" x="672.5" y="75.44"/><rect fill="#F1F1F1" height="2" style="stroke:#181818;stroke-width:0.5;" width="4" x="670.5" y="77.44"/><rect fill="#F1F1F1" height="2" style="stroke:#181818;stroke-width:0.5;" width="4" x="670.5" y="81.44"/><text fill="#000000" font-family="sans-serif" font-size="14" font-weight="bold" lengthAdjust="spacing" textLength="34" x="476.5" y="103.4351">web</text><text fill="#000000" font-family="sans-serif" font-size="14" lengthAdjust="spacing" textLength="4" x="476.5" y="119.732">&#160;</text><text fill="#000000" font-family="sans-serif" font-size="14" lengthAdjust="spacing" textLength="191" x="476.5" y="136.0289">environment: DEBUG=True</text><text fill="#000000" font-family="sans-serif" font-size="14" lengthAdjust="spacing" textLength="4" x="476.5" y="152.3257">&#160;</text></g><!--entity fd433df176955d196b161b0a41a19970--><g id="elem_fd433df176955d196b161b0a41a19970"><ellipse cx="652" cy="280.08" fill="#F1F1F1" rx="8" ry="8" style="stroke:#181818;stroke-width:0.5;"/><text fill="#000000" font-family="sans-serif" font-size="14" lengthAdjust="spacing" textLength="36" x="634" y="310.0751">8000</text></g><!--entity bf0d92aaf88698bc8d1ff8f25791b585--><g id="elem_bf0d92aaf88698bc8d1ff8f25791b585"><rect fill="#F1F1F1" height="39.2969" rx="2.5" ry="2.5" style="stroke:#181818;stroke-width:0.5;" width="137" x="508.5" y="505.08"/><polygon fill="#F1F1F1" points="628.5,510.08,628.5,524.08,640.5,524.08,640.5,516.08,634.5,510.08,628.5,510.08" style="stroke:#181818;stroke-width:0.5;"/><line style="stroke:#181818;stroke-width:0.5;" x1="634.5" x2="634.5" y1="510.08" y2="516.08"/><line style="stroke:#181818;stroke-width:0.5;" x1="640.5" x2="634.5" y1="516.08" y2="516.08"/><text fill="#000000" font-family="sans-serif" font-size="14" lengthAdjust="spacing" textLength="107" x="518.5" y="531.0751">/app/sortiment/</text></g><!--entity 0fdba2f4eaee59ed455281e34029996f--><g id="elem_0fdba2f4eaee59ed455281e34029996f"><rect fill="#F1F1F1" height="78.8906" rx="2.5" ry="2.5" style="stroke:#181818;stroke-width:0.5;" width="101" x="1015.5" y="78.59"/><rect fill="#F1F1F1" height="10" style="stroke:#181818;stroke-width:0.5;" width="15" x="1096.5" y="83.59"/><rect fill="#F1F1F1" height="2" style="stroke:#181818;stroke-width:0.5;" width="4" x="1094.5" y="85.59"/><rect fill="#F1F1F1" height="2" style="stroke:#181818;stroke-width:0.5;" width="4" x="1094.5" y="89.59"/><text fill="#000000" font-family="sans-serif" font-size="14" font-weight="bold" lengthAdjust="spacing" textLength="61" x="1030.5" y="111.5851">tailwind</text><text fill="#000000" font-family="sans-serif" font-size="14" lengthAdjust="spacing" textLength="4" x="1030.5" y="127.882">&#160;</text><text fill="#000000" font-family="sans-serif" font-size="14" lengthAdjust="spacing" textLength="4" x="1030.5" y="144.1789">&#160;</text></g><!--entity 8db8970a628b9dcbff1fdbaea4a54ef5--><g id="elem_8db8970a628b9dcbff1fdbaea4a54ef5"><rect fill="#F1F1F1" height="39.2969" rx="2.5" ry="2.5" style="stroke:#181818;stroke-width:0.5;" width="132" x="810" y="505.08"/><polygon fill="#F1F1F1" points="925,510.08,925,524.08,937,524.08,937,516.08,931,510.08,925,510.08" style="stroke:#181818;stroke-width:0.5;"/><line style="stroke:#181818;stroke-width:0.5;" x1="931" x2="931" y1="510.08" y2="516.08"/><line style="stroke:#181818;stroke-width:0.5;" x1="937" x2="931" y1="516.08" y2="516.08"/><text fill="#000000" font-family="sans-serif" font-size="14" lengthAdjust="spacing" textLength="102" x="820" y="531.0751">/app/sortiment</text></g><!--entity 002f94bf5d3082fe93ad9bc4b0a4b9f6--><g id="elem_002f94bf5d3082fe93ad9bc4b0a4b9f6"><rect fill="#F1F1F1" height="39.2969" rx="2.5" ry="2.5" style="stroke:#181818;stroke-width:0.5;" width="178" x="977" y="505.08"/><polygon fill="#F1F1F1" points="1138,510.08,1138,524.08,1150,524.08,1150,516.08,1144,510.08,1138,510.08" style="stroke:#181818;stroke-width:0.5;"/><line style="stroke:#181818;stroke-width:0.5;" x1="1144" x2="1144" y1="510.08" y2="516.08"/><line style="stroke:#181818;stroke-width:0.5;" x1="1150" x2="1144" y1="516.08" y2="516.08"/><text fill="#000000" font-family="sans-serif" font-size="14" lengthAdjust="spacing" textLength="148" x="987" y="531.0751">/app/tailwind.config.js</text></g><!--entity c7b6860911057473a1415cdd524a28e5--><g id="elem_c7b6860911057473a1415cdd524a28e5"><rect fill="#F1F1F1" height="39.2969" rx="2.5" ry="2.5" style="stroke:#181818;stroke-width:0.5;" width="158" x="1190" y="505.08"/><polygon fill="#F1F1F1" points="1331,510.08,1331,524.08,1343,524.08,1343,516.08,1337,510.08,1331,510.08" style="stroke:#181818;stroke-width:0.5;"/><line style="stroke:#181818;stroke-width:0.5;" x1="1337" x2="1337" y1="510.08" y2="516.08"/><line style="stroke:#181818;stroke-width:0.5;" x1="1343" x2="1337" y1="516.08" y2="516.08"/><text fill="#000000" font-family="sans-serif" font-size="14" lengthAdjust="spacing" textLength="128" x="1200" y="531.0751">/app/package.json</text></g><!--entity 1b3bff591894c324e6d0194254b68417--><g id="elem_1b3bff591894c324e6d0194254b68417"><rect fill="#F1F1F1" height="39.2969" rx="2.5" ry="2.5" style="stroke:#181818;stroke-width:0.5;" width="129" x="154.5" y="623.37"/><polygon fill="#F1F1F1" points="266.5,628.37,266.5,642.37,278.5,642.37,278.5,634.37,272.5,628.37,266.5,628.37" style="stroke:#181818;stroke-width:0.5;"/><line style="stroke:#181818;stroke-width:0.5;" x1="272.5" x2="272.5" y1="628.37" y2="634.37"/><line style="stroke:#181818;stroke-width:0.5;" x1="278.5" x2="272.5" y1="634.37" y2="634.37"/><text fill="#000000" font-family="sans-serif" font-size="14" lengthAdjust="spacing" textLength="99" x="164.5" y="649.3651">postgres_data</text></g><!--entity 3690396edc6796ff5538f4552ea7a604--><g id="elem_3690396edc6796ff5538f4552ea7a604"><rect fill="#F1F1F1" height="39.2969" rx="2.5" ry="2.5" style="stroke:#181818;stroke-width:0.5;" width="110" x="522" y="623.37"/><polygon fill="#F1F1F1" points="615,628.37,615,642.37,627,642.37,627,634.37,621,628.37,615,628.37" style="stroke:#181818;stroke-width:0.5;"/><line style="stroke:#181818;stroke-width:0.5;" x1="621" x2="621" y1="628.37" y2="634.37"/><line style="stroke:#181818;stroke-width:0.5;" x1="627" x2="621" y1="634.37" y2="634.37"/><text fill="#000000" font-family="sans-serif" font-size="14" lengthAdjust="spacing" textLength="80" x="532" y="649.3651">./sortiment/</text></g><!--entity 1b383b94c504b057c737287bc4c5dba3--><g id="elem_1b383b94c504b057c737287bc4c5dba3"><rect fill="#F1F1F1" height="39.2969" rx="2.5" ry="2.5" style="stroke:#181818;stroke-width:0.5;" width="105" x="823.5" y="623.37"/><polygon fill="#F1F1F1" points="911.5,628.37,911.5,642.37,923.5,642.37,923.5,634.37,917.5,628.37,911.5,628.37" style="stroke:#181818;stroke-width:0.5;"/><line style="stroke:#181818;stroke-width:0.5;" x1="917.5" x2="917.5" y1="628.37" y2="634.37"/><line style="stroke:#181818;stroke-width:0.5;" x1="923.5" x2="917.5" y1="634.37" y2="634.37"/><text fill="#000000" font-family="sans-serif" font-size="14" lengthAdjust="spacing" textLength="75" x="833.5" y="649.3651">./sortiment</text></g><!--entity c51daf7c130d5e1fa144d3334814623d--><g id="elem_c51daf7c130d5e1fa144d3334814623d"><rect fill="#F1F1F1" height="39.2969" rx="2.5" ry="2.5" style="stroke:#181818;stroke-width:0.5;" width="151" x="990.5" y="623.37"/><polygon fill="#F1F1F1" points="1124.5,628.37,1124.5,642.37,1136.5,642.37,1136.5,634.37,1130.5,628.37,1124.5,628.37" style="stroke:#181818;stroke-width:0.5;"/><line style="stroke:#181818;stroke-width:0.5;" x1="1130.5" x2="1130.5" y1="628.37" y2="634.37"/><line style="stroke:#181818;stroke-width:0.5;" x1="1136.5" x2="1130.5" y1="634.37" y2="634.37"/><text fill="#000000" font-family="sans-serif" font-size="14" lengthAdjust="spacing" textLength="121" x="1000.5" y="649.3651">./tailwind.config.js</text></g><!--entity 33d2da0819419497b243b8e88e6fcc29--><g id="elem_33d2da0819419497b243b8e88e6fcc29"><rect fill="#F1F1F1" height="39.2969" rx="2.5" ry="2.5" style="stroke:#181818;stroke-width:0.5;" width="131" x="1203.5" y="623.37"/><polygon fill="#F1F1F1" points="1317.5,628.37,1317.5,642.37,1329.5,642.37,1329.5,634.37,1323.5,628.37,1317.5,628.37" style="stroke:#181818;stroke-width:0.5;"/><line style="stroke:#181818;stroke-width:0.5;" x1="1323.5" x2="1323.5" y1="628.37" y2="634.37"/><line style="stroke:#181818;stroke-width:0.5;" x1="1329.5" x2="1323.5" y1="634.37" y2="634.37"/><text fill="#000000" font-family="sans-serif" font-size="14" lengthAdjust="spacing" textLength="101" x="1213.5" y="649.3651">./package.json</text></g><!--entity 1624c420083928ef3e240dd88f2e52f0--><g id="elem_1624c420083928ef3e240dd88f2e52f0"><ellipse cx="751" cy="415.08" fill="#F1F1F1" rx="8" ry="8" style="stroke:#181818;stroke-width:0.5;"/><text fill="#000000" font-family="sans-serif" font-size="14" lengthAdjust="spacing" textLength="36" x="733" y="445.0751">8000</text></g><!--link a6bcfd94783d6e8f719cef1ba92ab15b to 1b3bff591894c324e6d0194254b68417--><g id="link_a6bcfd94783d6e8f719cef1ba92ab15b_1b3bff591894c324e6d0194254b68417"><path codeLine="40" d="M219,544.67 C219,566.29 219,601.46 219,623.09 " fill="none" id="a6bcfd94783d6e8f719cef1ba92ab15b-1b3bff591894c324e6d0194254b68417" style="stroke:#181818;stroke-width:1.0;"/><text fill="#000000" font-family="sans-serif" font-size="13" lengthAdjust="spacing" textLength="14" x="220" y="589.4369">rw</text></g><!--link 355aeb7ac3f8fa43e8d94fbf0e4b8d6c to a6bcfd94783d6e8f719cef1ba92ab15b--><g id="link_355aeb7ac3f8fa43e8d94fbf0e4b8d6c_a6bcfd94783d6e8f719cef1ba92ab15b"><path codeLine="41" d="M219,190.46 C219,285.98 219,443.74 219,498.94 " fill="none" id="355aeb7ac3f8fa43e8d94fbf0e4b8d6c-to-a6bcfd94783d6e8f719cef1ba92ab15b" style="stroke:#181818;stroke-width:1.0;stroke-dasharray:7.0,7.0;"/><polygon fill="#181818" points="219,504.94,223,495.94,219,499.94,215,495.94,219,504.94" style="stroke:#181818;stroke-width:1.0;"/><text fill="#000000" font-family="sans-serif" font-size="13" lengthAdjust="spacing" textLength="23" x="220" y="352.1469">use</text></g><!--link 04a565d19766ebe0348853b17c395bd1 to fd433df176955d196b161b0a41a19970--><g id="link_04a565d19766ebe0348853b17c395bd1_fd433df176955d196b161b0a41a19970"><path codeLine="42" d="M598.89,165.76 C616.45,203.22 639.56,252.52 648.37,271.33 " fill="none" id="04a565d19766ebe0348853b17c395bd1-fd433df176955d196b161b0a41a19970" style="stroke:#181818;stroke-width:1.0;"/></g><!--link fd433df176955d196b161b0a41a19970 to 1624c420083928ef3e240dd88f2e52f0--><g id="link_fd433df176955d196b161b0a41a19970_1624c420083928ef3e240dd88f2e52f0"><path codeLine="43" d="M657.9,289 C675.55,312.71 727.81,382.93 745.26,406.36 " fill="none" id="fd433df176955d196b161b0a41a19970-1624c420083928ef3e240dd88f2e52f0" style="stroke:#181818;stroke-width:1.0;"/></g><!--link bf0d92aaf88698bc8d1ff8f25791b585 to 3690396edc6796ff5538f4552ea7a604--><g id="link_bf0d92aaf88698bc8d1ff8f25791b585_3690396edc6796ff5538f4552ea7a604"><path codeLine="44" d="M577,544.67 C577,566.29 577,601.46 577,623.09 " fill="none" id="bf0d92aaf88698bc8d1ff8f25791b585-3690396edc6796ff5538f4552ea7a604" style="stroke:#181818;stroke-width:1.0;"/><text fill="#000000" font-family="sans-serif" font-size="13" lengthAdjust="spacing" textLength="14" x="578" y="589.4369">rw</text></g><!--link 04a565d19766ebe0348853b17c395bd1 to bf0d92aaf88698bc8d1ff8f25791b585--><g id="link_04a565d19766ebe0348853b17c395bd1_bf0d92aaf88698bc8d1ff8f25791b585"><path codeLine="45" d="M577,165.86 C577,254.7 577,438.26 577,498.76 " fill="none" id="04a565d19766ebe0348853b17c395bd1-to-bf0d92aaf88698bc8d1ff8f25791b585" style="stroke:#181818;stroke-width:1.0;stroke-dasharray:7.0,7.0;"/><polygon fill="#181818" points="577,504.76,581,495.76,577,499.76,573,495.76,577,504.76" style="stroke:#181818;stroke-width:1.0;"/><text fill="#000000" font-family="sans-serif" font-size="13" lengthAdjust="spacing" textLength="23" x="578" y="352.1469">use</text></g><!--link 8db8970a628b9dcbff1fdbaea4a54ef5 to 1b383b94c504b057c737287bc4c5dba3--><g id="link_8db8970a628b9dcbff1fdbaea4a54ef5_1b383b94c504b057c737287bc4c5dba3"><path codeLine="46" d="M876,544.67 C876,566.29 876,601.46 876,623.09 " fill="none" id="8db8970a628b9dcbff1fdbaea4a54ef5-1b383b94c504b057c737287bc4c5dba3" style="stroke:#181818;stroke-width:1.0;"/><text fill="#000000" font-family="sans-serif" font-size="13" lengthAdjust="spacing" textLength="14" x="877" y="589.4369">rw</text></g><!--link 0fdba2f4eaee59ed455281e34029996f to 8db8970a628b9dcbff1fdbaea4a54ef5--><g id="link_0fdba2f4eaee59ed455281e34029996f_8db8970a628b9dcbff1fdbaea4a54ef5"><path codeLine="47" d="M1047.78,157.84 C1007.94,242.71 916.8096,436.7986 887.4896,499.2586 " fill="none" id="0fdba2f4eaee59ed455281e34029996f-to-8db8970a628b9dcbff1fdbaea4a54ef5" style="stroke:#181818;stroke-width:1.0;stroke-dasharray:7.0,7.0;"/><polygon fill="#181818" points="884.94,504.69,892.3853,498.2427,887.0647,500.1639,885.1435,494.8432,884.94,504.69" style="stroke:#181818;stroke-width:1.0;"/><text fill="#000000" font-family="sans-serif" font-size="13" lengthAdjust="spacing" textLength="23" x="963" y="352.1469">use</text></g><!--link 002f94bf5d3082fe93ad9bc4b0a4b9f6 to c51daf7c130d5e1fa144d3334814623d--><g id="link_002f94bf5d3082fe93ad9bc4b0a4b9f6_c51daf7c130d5e1fa144d3334814623d"><path codeLine="48" d="M1066,544.67 C1066,566.29 1066,601.46 1066,623.09 " fill="none" id="002f94bf5d3082fe93ad9bc4b0a4b9f6-c51daf7c130d5e1fa144d3334814623d" style="stroke:#181818;stroke-width:1.0;"/><text fill="#000000" font-family="sans-serif" font-size="13" lengthAdjust="spacing" textLength="14" x="1067" y="589.4369">rw</text></g><!--link 0fdba2f4eaee59ed455281e34029996f to 002f94bf5d3082fe93ad9bc4b0a4b9f6--><g id="link_0fdba2f4eaee59ed455281e34029996f_002f94bf5d3082fe93ad9bc4b0a4b9f6"><path codeLine="49" d="M1066,157.84 C1066,242.71 1066,436.23 1066,498.69 " fill="none" id="0fdba2f4eaee59ed455281e34029996f-to-002f94bf5d3082fe93ad9bc4b0a4b9f6" style="stroke:#181818;stroke-width:1.0;stroke-dasharray:7.0,7.0;"/><polygon fill="#181818" points="1066,504.69,1070,495.69,1066,499.69,1062,495.69,1066,504.69" style="stroke:#181818;stroke-width:1.0;"/><text fill="#000000" font-family="sans-serif" font-size="13" lengthAdjust="spacing" textLength="23" x="1067" y="352.1469">use</text></g><!--link c7b6860911057473a1415cdd524a28e5 to 33d2da0819419497b243b8e88e6fcc29--><g id="link_c7b6860911057473a1415cdd524a28e5_33d2da0819419497b243b8e88e6fcc29"><path codeLine="50" d="M1269,544.67 C1269,566.29 1269,601.46 1269,623.09 " fill="none" id="c7b6860911057473a1415cdd524a28e5-33d2da0819419497b243b8e88e6fcc29" style="stroke:#181818;stroke-width:1.0;"/><text fill="#000000" font-family="sans-serif" font-size="13" lengthAdjust="spacing" textLength="14" x="1270" y="589.4369">rw</text></g><!--link 0fdba2f4eaee59ed455281e34029996f to c7b6860911057473a1415cdd524a28e5--><g id="link_0fdba2f4eaee59ed455281e34029996f_c7b6860911057473a1415cdd524a28e5"><path codeLine="51" d="M1085.46,157.84 C1128.04,242.71 1225.4299,436.8669 1256.7599,499.3269 " fill="none" id="0fdba2f4eaee59ed455281e34029996f-to-c7b6860911057473a1415cdd524a28e5" style="stroke:#181818;stroke-width:1.0;stroke-dasharray:7.0,7.0;"/><polygon fill="#181818" points="1259.45,504.69,1258.9902,494.8519,1257.2082,500.2207,1251.8394,498.4387,1259.45,504.69" style="stroke:#181818;stroke-width:1.0;"/><text fill="#000000" font-family="sans-serif" font-size="13" lengthAdjust="spacing" textLength="23" x="1185" y="352.1469">use</text></g><!--SRC=[bLHTQnjN47tVNx7egJ5OkjyVXXGIRFAOO3daePGmzyvSiusygqXAN2ZzxvrTQPt8RNe9w6NHp9bppfoviDaCZm_Tdrr_t_G3KhkuJeiMzYrwZvQiq83Iw5Xii91DDCg5fArCxLzDcuU7xT1JVsYrjK39GzOb532Q0aPJKX5aKa2Nsz-QYmjC5nTDqpt0FLsrss5_kD_H_agQIzXikvuQwhzskw5_OC2hzjtRzTsRsvlrn_VhczkNS_KFQjwzMgy_lBszhjLTl_vMqVpUmExG5SY7Th7w2hlLfakh-U_FcnN20LQJ5-1IBYp81usEGl4oPYeoGLIGf4tDtoVlFj3HF6MT1qivUc4dMrIEmGYjIJWP8fwR9mnOPr56xnmb4jg4O7MIFkje4yh9l4UQt3lJTNtp-lsRbtUxBpIg-UL5kmX2Y8b1GQCr5kbTj2EqIzB99C18a95fVQyTjjlLVk3l4VMec3U7B0vA22w6b0FAmfjLraUPE0fFYk-WspnsFHvbG-28y6WHbFQ6xR68O5HCX2OKyqnsmGIg608Y6xd2MXKaQIDKZD6LIVRXX3zgFz_O6UjfVC0KM1eu5LB4d4gHumW2zjTGiS-xP-nb7lhItI__s4ymGgWIJIeMDUie5Fa4OifcT2_5ufx3R25_uaXp-z1F0Dad5vo8KWhhZTSWZRGPqIe3Aj1etZU8EN0VnxXDxJ9ffcuZ1yLahGmv598Fpng6DT9_rxnylZVjej3H4MRdsS9YhMRVsLW23qwO_-wTnmQTUAGLBDNwxBLNmRFmRDb5VTRw0-kobGZ5Pwa5Fnwoi7A3MdEWfN5Aund6ltpZm2e44LWi_w9FokWKA0Ho9MSLpnCkdJBPA262ZkngqQICG0oSKhAgSC8hLzjUucNLxFQgNUmU5qtrWLikSRdyjVfKZ7XVzhHegaS_igjUSQtWgB7cLEtQ9vHQj6Qdgi9EJbM7paxLpdhUu_-czubTxT4viQiEVTfZvRMOsDNkucVPLOVEx6fFqN6pbRlxMNRLeITs_m00]--></g></svg>