<svg xmlns="http://www.w3.org/2000/svg" xmlns:xlink="http://www.w3.org/1999/xlink" contentStyleType="text/css" height="675px" preserveAspectRatio="none" style="width:1439px;height:675px;background:#FFFFFF;" version="1.1" viewBox="0 0 1439 675" width="1439px" zoomAndPan="magnify"><defs/><g><!--cluster b008ec329aebe6e251e4351401c203e5--><g id="cluster_b008ec329aebe6e251e4351401c203e5"><path d="M556.5,6 L604.5,6 A3.75,3.75 0 0 1 607,8.5 L614,28.2969 L1072.5,28.2969 A2.5,2.5 0 0 1 1075,30.7969 L1075,666.06 A2.5,2.5 0 0 1 1072.5,668.56 L556.5,668.56 A2.5,2.5 0 0 1 554,666.06 L554,8.5 A2.5,2.5 0 0 1 556.5,6 " fill="none" style="stroke:#000000;stroke-width:1.5;"/><line style="stroke:#000000;stroke-width:1.5;" x1="554" x2="614" y1="28.2969" y2="28.2969"/><text fill="#000000" font-family="sans-serif" font-size="14" font-weight="bold" lengthAdjust="spacing" textLength="47" x="558" y="20.9951">store/</text></g><!--cluster cd8ffcc665917acd24eec977f039f75d--><g id="cluster_cd8ffcc665917acd24eec977f039f75d"><path d="M635.5,399.78 L701.5,399.78 A3.75,3.75 0 0 1 704,402.28 L711,422.0769 L756.5,422.0769 A2.5,2.5 0 0 1 759,424.5769 L759,527.17 A2.5,2.5 0 0 1 756.5,529.67 L635.5,529.67 A2.5,2.5 0 0 1 633,527.17 L633,402.28 A2.5,2.5 0 0 1 635.5,399.78 " fill="none" style="stroke:#000000;stroke-width:1.5;"/><line style="stroke:#000000;stroke-width:1.5;" x1="633" x2="711" y1="422.0769" y2="422.0769"/><text fill="#000000" font-family="sans-serif" font-size="14" font-weight="bold" lengthAdjust="spacing" textLength="65" x="637" y="414.7751">helpers/</text></g><!--cluster 8d6536db4cbca5f359fa242d1dc3fa56--><g id="cluster_8d6536db4cbca5f359fa242d1dc3fa56"><path d="M580.5,49 L632.5,49 A3.75,3.75 0 0 1 635,51.5 L642,71.2969 L854.5,71.2969 A2.5,2.5 0 0 1 857,73.7969 L857,176.39 A2.5,2.5 0 0 1 854.5,178.89 L580.5,178.89 A2.5,2.5 0 0 1 578,176.39 L578,51.5 A2.5,2.5 0 0 1 580.5,49 " fill="none" style="stroke:#000000;stroke-width:1.5;"/><line style="stroke:#000000;stroke-width:1.5;" x1="578" x2="642" y1="71.2969" y2="71.2969"/><text fill="#000000" font-family="sans-serif" font-size="14" font-weight="bold" lengthAdjust="spacing" textLength="51" x="582" y="63.9951">views/</text></g><!--cluster 0056968b2cea67368c6deed84074a25f--><g id="cluster_0056968b2cea67368c6deed84074a25f"><path d="M8.5,202.89 L59.5,202.89 A3.75,3.75 0 0 1 62,205.39 L69,225.1869 L487.5,225.1869 A2.5,2.5 0 0 1 490,227.6869 L490,666.06 A2.5,2.5 0 0 1 487.5,668.56 L8.5,668.56 A2.5,2.5 0 0 1 6,666.06 L6,205.39 A2.5,2.5 0 0 1 8.5,202.89 " fill="none" style="stroke:#000000;stroke-width:1.5;"/><line style="stroke:#000000;stroke-width:1.5;" x1="6" x2="69" y1="225.1869" y2="225.1869"/><text fill="#000000" font-family="sans-serif" font-size="14" font-weight="bold" lengthAdjust="spacing" textLength="50" x="10" y="217.8851">users/</text></g><!--cluster b00f6592d8b57676f3755ebe2c9771ad--><g id="cluster_b00f6592d8b57676f3755ebe2c9771ad"><path d="M32.5,245.89 L141.5,245.89 A3.75,3.75 0 0 1 144,248.39 L151,268.1869 L151.5,268.1869 A2.5,2.5 0 0 1 154,270.6869 L154,373.28 A2.5,2.5 0 0 1 151.5,375.78 L32.5,375.78 A2.5,2.5 0 0 1 30,373.28 L30,248.39 A2.5,2.5 0 0 1 32.5,245.89 " fill="none" style="stroke:#000000;stroke-width:1.5;"/><line style="stroke:#000000;stroke-width:1.5;" x1="30" x2="151" y1="268.1869" y2="268.1869"/><text fill="#000000" font-family="sans-serif" font-size="14" font-weight="bold" lengthAdjust="spacing" textLength="108" x="34" y="260.8851">templatetags/</text></g><!--cluster d67df6c34765ab3402ee7294df253701--><g id="cluster_d67df6c34765ab3402ee7294df253701"><path d="M1101.5,49 L1183.5,49 A3.75,3.75 0 0 1 1186,51.5 L1193,71.2969 L1429.5,71.2969 A2.5,2.5 0 0 1 1432,73.7969 L1432,176.39 A2.5,2.5 0 0 1 1429.5,178.89 L1101.5,178.89 A2.5,2.5 0 0 1 1099,176.39 L1099,51.5 A2.5,2.5 0 0 1 1101.5,49 " fill="none" style="stroke:#000000;stroke-width:1.5;"/><line style="stroke:#000000;stroke-width:1.5;" x1="1099" x2="1193" y1="71.2969" y2="71.2969"/><text fill="#000000" font-family="sans-serif" font-size="14" font-weight="bold" lengthAdjust="spacing" textLength="81" x="1103" y="63.9951">sortiment/</text></g><!--entity 1c612b276e2340a87692c79183748023--><g id="elem_1c612b276e2340a87692c79183748023"><rect fill="#F1F1F1" height="78.8906" rx="2.5" ry="2.5" style="stroke:#181818;stroke-width:0.5;" width="86" x="852" y="434.78"/><rect fill="#F1F1F1" height="10" style="stroke:#181818;stroke-width:0.5;" width="15" x="918" y="439.78"/><rect fill="#F1F1F1" height="2" style="stroke:#181818;stroke-width:0.5;" width="4" x="916" y="441.78"/><rect fill="#F1F1F1" height="2" style="stroke:#181818;stroke-width:0.5;" width="4" x="916" y="445.78"/><text fill="#000000" font-family="sans-serif" font-size="14" font-weight="bold" lengthAdjust="spacing" textLength="46" x="867" y="467.7751">forms</text><text fill="#000000" font-family="sans-serif" font-size="14" lengthAdjust="spacing" textLength="4" x="867" y="484.072">&#160;</text><text fill="#000000" font-family="sans-serif" font-size="14" lengthAdjust="spacing" textLength="4" x="867" y="500.3689">&#160;</text></g><!--entity 5395d94ee58d5ed2c803fa2ba347765d--><g id="elem_5395d94ee58d5ed2c803fa2ba347765d"><rect fill="#F1F1F1" height="78.8906" rx="2.5" ry="2.5" style="stroke:#181818;stroke-width:0.5;" width="70" x="876" y="84"/><rect fill="#F1F1F1" height="10" style="stroke:#181818;stroke-width:0.5;" width="15" x="926" y="89"/><rect fill="#F1F1F1" height="2" style="stroke:#181818;stroke-width:0.5;" width="4" x="924" y="91"/><rect fill="#F1F1F1" height="2" style="stroke:#181818;stroke-width:0.5;" width="4" x="924" y="95"/><text fill="#000000" font-family="sans-serif" font-size="14" font-weight="bold" lengthAdjust="spacing" textLength="30" x="891" y="116.9951">urls</text><text fill="#000000" font-family="sans-serif" font-size="14" lengthAdjust="spacing" textLength="4" x="891" y="133.292">&#160;</text><text fill="#000000" font-family="sans-serif" font-size="14" lengthAdjust="spacing" textLength="4" x="891" y="149.5889">&#160;</text></g><!--entity 262ae7a7b008eb3bb13a4093f4552ae9--><g id="elem_262ae7a7b008eb3bb13a4093f4552ae9"><rect fill="#F1F1F1" height="78.8906" rx="2.5" ry="2.5" style="stroke:#181818;stroke-width:0.5;" width="71" x="685.5" y="280.89"/><rect fill="#F1F1F1" height="10" style="stroke:#181818;stroke-width:0.5;" width="15" x="736.5" y="285.89"/><rect fill="#F1F1F1" height="2" style="stroke:#181818;stroke-width:0.5;" width="4" x="734.5" y="287.89"/><rect fill="#F1F1F1" height="2" style="stroke:#181818;stroke-width:0.5;" width="4" x="734.5" y="291.89"/><text fill="#000000" font-family="sans-serif" font-size="14" font-weight="bold" lengthAdjust="spacing" textLength="31" x="700.5" y="313.8851">cart</text><text fill="#000000" font-family="sans-serif" font-size="14" lengthAdjust="spacing" textLength="4" x="700.5" y="330.182">&#160;</text><text fill="#000000" font-family="sans-serif" font-size="14" lengthAdjust="spacing" textLength="4" x="700.5" y="346.4789">&#160;</text></g><!--entity f596fb6c63c8e38e791a34122f26e16d--><g id="elem_f596fb6c63c8e38e791a34122f26e16d"><rect fill="#F1F1F1" height="78.8906" rx="2.5" ry="2.5" style="stroke:#181818;stroke-width:0.5;" width="78" x="981" y="84"/><rect fill="#F1F1F1" height="10" style="stroke:#181818;stroke-width:0.5;" width="15" x="1039" y="89"/><rect fill="#F1F1F1" height="2" style="stroke:#181818;stroke-width:0.5;" width="4" x="1037" y="91"/><rect fill="#F1F1F1" height="2" style="stroke:#181818;stroke-width:0.5;" width="4" x="1037" y="95"/><text fill="#000000" font-family="sans-serif" font-size="14" font-weight="bold" lengthAdjust="spacing" textLength="38" x="996" y="116.9951">apps</text><text fill="#000000" font-family="sans-serif" font-size="14" lengthAdjust="spacing" textLength="4" x="996" y="133.292">&#160;</text><text fill="#000000" font-family="sans-serif" font-size="14" lengthAdjust="spacing" textLength="4" x="996" y="149.5889">&#160;</text></g><!--entity 3a2282d5b744381a42bebad37d225e80--><g id="elem_3a2282d5b744381a42bebad37d225e80"><rect fill="#F1F1F1" height="78.8906" rx="2.5" ry="2.5" style="stroke:#181818;stroke-width:0.5;" width="97" x="767.5" y="573.67"/><rect fill="#F1F1F1" height="10" style="stroke:#181818;stroke-width:0.5;" width="15" x="844.5" y="578.67"/><rect fill="#F1F1F1" height="2" style="stroke:#181818;stroke-width:0.5;" width="4" x="842.5" y="580.67"/><rect fill="#F1F1F1" height="2" style="stroke:#181818;stroke-width:0.5;" width="4" x="842.5" y="584.67"/><text fill="#000000" font-family="sans-serif" font-size="14" font-weight="bold" lengthAdjust="spacing" textLength="57" x="782.5" y="606.6651">models</text><text fill="#000000" font-family="sans-serif" font-size="14" lengthAdjust="spacing" textLength="4" x="782.5" y="622.962">&#160;</text><text fill="#000000" font-family="sans-serif" font-size="14" lengthAdjust="spacing" textLength="4" x="782.5" y="639.2589">&#160;</text></g><!--entity b3d218fad4f89557be074aaf070f6230--><g id="elem_b3d218fad4f89557be074aaf070f6230"><rect fill="#F1F1F1" height="78.8906" rx="2.5" ry="2.5" style="stroke:#181818;stroke-width:0.5;" width="87" x="972.5" y="434.78"/><rect fill="#F1F1F1" height="10" style="stroke:#181818;stroke-width:0.5;" width="15" x="1039.5" y="439.78"/><rect fill="#F1F1F1" height="2" style="stroke:#181818;stroke-width:0.5;" width="4" x="1037.5" y="441.78"/><rect fill="#F1F1F1" height="2" style="stroke:#181818;stroke-width:0.5;" width="4" x="1037.5" y="445.78"/><text fill="#000000" font-family="sans-serif" font-size="14" font-weight="bold" lengthAdjust="spacing" textLength="47" x="987.5" y="467.7751">admin</text><text fill="#000000" font-family="sans-serif" font-size="14" lengthAdjust="spacing" textLength="4" x="987.5" y="484.072">&#160;</text><text fill="#000000" font-family="sans-serif" font-size="14" lengthAdjust="spacing" textLength="4" x="987.5" y="500.3689">&#160;</text></g><!--entity 7615c0db0633f375ccc365d8f22ae2e9--><g id="elem_7615c0db0633f375ccc365d8f22ae2e9"><rect fill="#F1F1F1" height="78.8906" rx="2.5" ry="2.5" style="stroke:#181818;stroke-width:0.5;" width="94" x="649" y="434.78"/><rect fill="#F1F1F1" height="10" style="stroke:#181818;stroke-width:0.5;" width="15" x="723" y="439.78"/><rect fill="#F1F1F1" height="2" style="stroke:#181818;stroke-width:0.5;" width="4" x="721" y="441.78"/><rect fill="#F1F1F1" height="2" style="stroke:#181818;stroke-width:0.5;" width="4" x="721" y="445.78"/><text fill="#000000" font-family="sans-serif" font-size="14" font-weight="bold" lengthAdjust="spacing" textLength="54" x="664" y="467.7751">events</text><text fill="#000000" font-family="sans-serif" font-size="14" lengthAdjust="spacing" textLength="4" x="664" y="484.072">&#160;</text><text fill="#000000" font-family="sans-serif" font-size="14" lengthAdjust="spacing" textLength="4" x="664" y="500.3689">&#160;</text></g><!--entity 2ee133660263b4d692132f7bed96c0f1--><g id="elem_2ee133660263b4d692132f7bed96c0f1"><rect fill="#F1F1F1" height="78.8906" rx="2.5" ry="2.5" style="stroke:#181818;stroke-width:0.5;" width="90" x="594" y="84"/><rect fill="#F1F1F1" height="10" style="stroke:#181818;stroke-width:0.5;" width="15" x="664" y="89"/><rect fill="#F1F1F1" height="2" style="stroke:#181818;stroke-width:0.5;" width="4" x="662" y="91"/><rect fill="#F1F1F1" height="2" style="stroke:#181818;stroke-width:0.5;" width="4" x="662" y="95"/><text fill="#000000" font-family="sans-serif" font-size="14" font-weight="bold" lengthAdjust="spacing" textLength="50" x="609" y="116.9951">mixins</text><text fill="#000000" font-family="sans-serif" font-size="14" lengthAdjust="spacing" textLength="4" x="609" y="133.292">&#160;</text><text fill="#000000" font-family="sans-serif" font-size="14" lengthAdjust="spacing" textLength="4" x="609" y="149.5889">&#160;</text></g><!--entity 22b2c251ada236a96eb55134f890bc59--><g id="elem_22b2c251ada236a96eb55134f890bc59"><rect fill="#F1F1F1" height="78.8906" rx="2.5" ry="2.5" style="stroke:#181818;stroke-width:0.5;" width="121" x="719.5" y="84"/><rect fill="#F1F1F1" height="10" style="stroke:#181818;stroke-width:0.5;" width="15" x="820.5" y="89"/><rect fill="#F1F1F1" height="2" style="stroke:#181818;stroke-width:0.5;" width="4" x="818.5" y="91"/><rect fill="#F1F1F1" height="2" style="stroke:#181818;stroke-width:0.5;" width="4" x="818.5" y="95"/><text fill="#000000" font-family="sans-serif" font-size="14" font-weight="bold" lengthAdjust="spacing" textLength="81" x="734.5" y="116.9951">storefront</text><text fill="#000000" font-family="sans-serif" font-size="14" lengthAdjust="spacing" textLength="4" x="734.5" y="133.292">&#160;</text><text fill="#000000" font-family="sans-serif" font-size="14" lengthAdjust="spacing" textLength="4" x="734.5" y="149.5889">&#160;</text></g><!--entity 91a3b5d71a93724dbff121fd3f7adc73--><g id="elem_91a3b5d71a93724dbff121fd3f7adc73"><rect fill="#F1F1F1" height="78.8906" rx="2.5" ry="2.5" style="stroke:#181818;stroke-width:0.5;" width="86" x="226" y="434.78"/><rect fill="#F1F1F1" height="10" style="stroke:#181818;stroke-width:0.5;" width="15" x="292" y="439.78"/><rect fill="#F1F1F1" height="2" style="stroke:#181818;stroke-width:0.5;" width="4" x="290" y="441.78"/><rect fill="#F1F1F1" height="2" style="stroke:#181818;stroke-width:0.5;" width="4" x="290" y="445.78"/><text fill="#000000" font-family="sans-serif" font-size="14" font-weight="bold" lengthAdjust="spacing" textLength="46" x="241" y="467.7751">forms</text><text fill="#000000" font-family="sans-serif" font-size="14" lengthAdjust="spacing" textLength="4" x="241" y="484.072">&#160;</text><text fill="#000000" font-family="sans-serif" font-size="14" lengthAdjust="spacing" textLength="4" x="241" y="500.3689">&#160;</text></g><!--entity 27fffef9458640ab7b705beff05c2313--><g id="elem_27fffef9458640ab7b705beff05c2313"><rect fill="#F1F1F1" height="78.8906" rx="2.5" ry="2.5" style="stroke:#181818;stroke-width:0.5;" width="70" x="170" y="280.89"/><rect fill="#F1F1F1" height="10" style="stroke:#181818;stroke-width:0.5;" width="15" x="220" y="285.89"/><rect fill="#F1F1F1" height="2" style="stroke:#181818;stroke-width:0.5;" width="4" x="218" y="287.89"/><rect fill="#F1F1F1" height="2" style="stroke:#181818;stroke-width:0.5;" width="4" x="218" y="291.89"/><text fill="#000000" font-family="sans-serif" font-size="14" font-weight="bold" lengthAdjust="spacing" textLength="30" x="185" y="313.8851">urls</text><text fill="#000000" font-family="sans-serif" font-size="14" lengthAdjust="spacing" textLength="4" x="185" y="330.182">&#160;</text><text fill="#000000" font-family="sans-serif" font-size="14" lengthAdjust="spacing" textLength="4" x="185" y="346.4789">&#160;</text></g><!--entity ec207b05a852fab3097621b39543fb3c--><g id="elem_ec207b05a852fab3097621b39543fb3c"><rect fill="#F1F1F1" height="78.8906" rx="2.5" ry="2.5" style="stroke:#181818;stroke-width:0.5;" width="86" x="275" y="280.89"/><rect fill="#F1F1F1" height="10" style="stroke:#181818;stroke-width:0.5;" width="15" x="341" y="285.89"/><rect fill="#F1F1F1" height="2" style="stroke:#181818;stroke-width:0.5;" width="4" x="339" y="287.89"/><rect fill="#F1F1F1" height="2" style="stroke:#181818;stroke-width:0.5;" width="4" x="339" y="291.89"/><text fill="#000000" font-family="sans-serif" font-size="14" font-weight="bold" lengthAdjust="spacing" textLength="46" x="290" y="313.8851">views</text><text fill="#000000" font-family="sans-serif" font-size="14" lengthAdjust="spacing" textLength="4" x="290" y="330.182">&#160;</text><text fill="#000000" font-family="sans-serif" font-size="14" lengthAdjust="spacing" textLength="4" x="290" y="346.4789">&#160;</text></g><!--entity 5229cab37199870a1330c4de97d4d508--><g id="elem_5229cab37199870a1330c4de97d4d508"><rect fill="#F1F1F1" height="78.8906" rx="2.5" ry="2.5" style="stroke:#181818;stroke-width:0.5;" width="78" x="396" y="280.89"/><rect fill="#F1F1F1" height="10" style="stroke:#181818;stroke-width:0.5;" width="15" x="454" y="285.89"/><rect fill="#F1F1F1" height="2" style="stroke:#181818;stroke-width:0.5;" width="4" x="452" y="287.89"/><rect fill="#F1F1F1" height="2" style="stroke:#181818;stroke-width:0.5;" width="4" x="452" y="291.89"/><text fill="#000000" font-family="sans-serif" font-size="14" font-weight="bold" lengthAdjust="spacing" textLength="38" x="411" y="313.8851">apps</text><text fill="#000000" font-family="sans-serif" font-size="14" lengthAdjust="spacing" textLength="4" x="411" y="330.182">&#160;</text><text fill="#000000" font-family="sans-serif" font-size="14" lengthAdjust="spacing" textLength="4" x="411" y="346.4789">&#160;</text></g><!--entity c56da4277af3fd72194853f7abb7b4d3--><g id="elem_c56da4277af3fd72194853f7abb7b4d3"><rect fill="#F1F1F1" height="78.8906" rx="2.5" ry="2.5" style="stroke:#181818;stroke-width:0.5;" width="97" x="377.5" y="573.67"/><rect fill="#F1F1F1" height="10" style="stroke:#181818;stroke-width:0.5;" width="15" x="454.5" y="578.67"/><rect fill="#F1F1F1" height="2" style="stroke:#181818;stroke-width:0.5;" width="4" x="452.5" y="580.67"/><rect fill="#F1F1F1" height="2" style="stroke:#181818;stroke-width:0.5;" width="4" x="452.5" y="584.67"/><text fill="#000000" font-family="sans-serif" font-size="14" font-weight="bold" lengthAdjust="spacing" textLength="57" x="392.5" y="606.6651">models</text><text fill="#000000" font-family="sans-serif" font-size="14" lengthAdjust="spacing" textLength="4" x="392.5" y="622.962">&#160;</text><text fill="#000000" font-family="sans-serif" font-size="14" lengthAdjust="spacing" textLength="4" x="392.5" y="639.2589">&#160;</text></g><!--entity e46ffa6ea4a4cff79f384b666b2de51e--><g id="elem_e46ffa6ea4a4cff79f384b666b2de51e"><rect fill="#F1F1F1" height="78.8906" rx="2.5" ry="2.5" style="stroke:#181818;stroke-width:0.5;" width="87" x="383.5" y="434.78"/><rect fill="#F1F1F1" height="10" style="stroke:#181818;stroke-width:0.5;" width="15" x="450.5" y="439.78"/><rect fill="#F1F1F1" height="2" style="stroke:#181818;stroke-width:0.5;" width="4" x="448.5" y="441.78"/><rect fill="#F1F1F1" height="2" style="stroke:#181818;stroke-width:0.5;" width="4" x="448.5" y="445.78"/><text fill="#000000" font-family="sans-serif" font-size="14" font-weight="bold" lengthAdjust="spacing" textLength="47" x="398.5" y="467.7751">admin</text><text fill="#000000" font-family="sans-serif" font-size="14" lengthAdjust="spacing" textLength="4" x="398.5" y="484.072">&#160;</text><text fill="#000000" font-family="sans-serif" font-size="14" lengthAdjust="spacing" textLength="4" x="398.5" y="500.3689">&#160;</text></g><!--entity 771ac1336fa393b0bbb20e6d35767e54--><g id="elem_771ac1336fa393b0bbb20e6d35767e54"><rect fill="#F1F1F1" height="78.8906" rx="2.5" ry="2.5" style="stroke:#181818;stroke-width:0.5;" width="86" x="47" y="280.89"/><rect fill="#F1F1F1" height="10" style="stroke:#181818;stroke-width:0.5;" width="15" x="113" y="285.89"/><rect fill="#F1F1F1" height="2" style="stroke:#181818;stroke-width:0.5;" width="4" x="111" y="287.89"/><rect fill="#F1F1F1" height="2" style="stroke:#181818;stroke-width:0.5;" width="4" x="111" y="291.89"/><text fill="#000000" font-family="sans-serif" font-size="14" font-weight="bold" lengthAdjust="spacing" textLength="46" x="62" y="313.8851">forms</text><text fill="#000000" font-family="sans-serif" font-size="14" lengthAdjust="spacing" textLength="4" x="62" y="330.182">&#160;</text><text fill="#000000" font-family="sans-serif" font-size="14" lengthAdjust="spacing" textLength="4" x="62" y="346.4789">&#160;</text></g><!--entity 1b5ed38665c5a3d24f623022b438fbe1--><g id="elem_1b5ed38665c5a3d24f623022b438fbe1"><rect fill="#F1F1F1" height="78.8906" rx="2.5" ry="2.5" style="stroke:#181818;stroke-width:0.5;" width="70" x="1115" y="84"/><rect fill="#F1F1F1" height="10" style="stroke:#181818;stroke-width:0.5;" width="15" x="1165" y="89"/><rect fill="#F1F1F1" height="2" style="stroke:#181818;stroke-width:0.5;" width="4" x="1163" y="91"/><rect fill="#F1F1F1" height="2" style="stroke:#181818;stroke-width:0.5;" width="4" x="1163" y="95"/><text fill="#000000" font-family="sans-serif" font-size="14" font-weight="bold" lengthAdjust="spacing" textLength="30" x="1130" y="116.9951">urls</text><text fill="#000000" font-family="sans-serif" font-size="14" lengthAdjust="spacing" textLength="4" x="1130" y="133.292">&#160;</text><text fill="#000000" font-family="sans-serif" font-size="14" lengthAdjust="spacing" textLength="4" x="1130" y="149.5889">&#160;</text></g><!--entity b4763fbebbd33729b13146a5ce5d977a--><g id="elem_b4763fbebbd33729b13146a5ce5d977a"><rect fill="#F1F1F1" height="78.8906" rx="2.5" ry="2.5" style="stroke:#181818;stroke-width:0.5;" width="197" x="1219.5" y="84"/><rect fill="#F1F1F1" height="10" style="stroke:#181818;stroke-width:0.5;" width="15" x="1396.5" y="89"/><rect fill="#F1F1F1" height="2" style="stroke:#181818;stroke-width:0.5;" width="4" x="1394.5" y="91"/><rect fill="#F1F1F1" height="2" style="stroke:#181818;stroke-width:0.5;" width="4" x="1394.5" y="95"/><text fill="#000000" font-family="sans-serif" font-size="14" font-weight="bold" lengthAdjust="spacing" textLength="157" x="1234.5" y="116.9951">context_processors</text><text fill="#000000" font-family="sans-serif" font-size="14" lengthAdjust="spacing" textLength="4" x="1234.5" y="133.292">&#160;</text><text fill="#000000" font-family="sans-serif" font-size="14" lengthAdjust="spacing" textLength="4" x="1234.5" y="149.5889">&#160;</text></g><!--link 1c612b276e2340a87692c79183748023 to 3a2282d5b744381a42bebad37d225e80--><g id="link_1c612b276e2340a87692c79183748023_3a2282d5b744381a42bebad37d225e80"><path codeLine="104" d="M872.57,514.09 C861.81,532.74 851.9491,549.8233 841.2091,568.4333 " fill="none" id="1c612b276e2340a87692c79183748023-to-3a2282d5b744381a42bebad37d225e80" style="stroke:#181818;stroke-width:1.0;"/><polygon fill="#181818" points="838.21,573.63,846.1731,567.8343,840.7092,569.2994,839.2441,563.8356,838.21,573.63" style="stroke:#181818;stroke-width:1.0;"/></g><!--link 7615c0db0633f375ccc365d8f22ae2e9 to 3a2282d5b744381a42bebad37d225e80--><g id="link_7615c0db0633f375ccc365d8f22ae2e9_3a2282d5b744381a42bebad37d225e80"><path codeLine="105" d="M726.91,513.85 C733.46,521.8 740.38,530.07 747,537.67 C757.3,549.5 764.6863,557.7042 775.2863,569.1142 " fill="none" id="7615c0db0633f375ccc365d8f22ae2e9-to-3a2282d5b744381a42bebad37d225e80" style="stroke:#181818;stroke-width:1.0;"/><polygon fill="#181818" points="779.37,573.51,776.1749,564.1938,775.9669,569.8468,770.3139,569.6388,779.37,573.51" style="stroke:#181818;stroke-width:1.0;"/></g><!--link 7615c0db0633f375ccc365d8f22ae2e9 to c56da4277af3fd72194853f7abb7b4d3--><g id="link_7615c0db0633f375ccc365d8f22ae2e9_c56da4277af3fd72194853f7abb7b4d3"><path codeLine="106" d="M669.87,514.13 C662.63,522.79 654.2,531.28 645,537.67 C630.67,547.62 540.6378,576.5634 480.5878,595.2934 " fill="none" id="7615c0db0633f375ccc365d8f22ae2e9-to-c56da4277af3fd72194853f7abb7b4d3" style="stroke:#181818;stroke-width:1.0;"/><polygon fill="#181818" points="474.86,597.08,484.6428,598.2187,479.6332,595.5912,482.2607,590.5816,474.86,597.08" style="stroke:#181818;stroke-width:1.0;"/></g><!--link 262ae7a7b008eb3bb13a4093f4552ae9 to 7615c0db0633f375ccc365d8f22ae2e9--><g id="link_262ae7a7b008eb3bb13a4093f4552ae9_7615c0db0633f375ccc365d8f22ae2e9"><path codeLine="107" d="M714.63,360.05 C710.88,382.82 707.1338,405.5895 703.3838,428.3895 " fill="none" id="262ae7a7b008eb3bb13a4093f4552ae9-to-7615c0db0633f375ccc365d8f22ae2e9" style="stroke:#181818;stroke-width:1.0;"/><polygon fill="#181818" points="702.41,434.31,707.8176,426.0785,703.2215,429.3763,699.9237,424.7801,702.41,434.31" style="stroke:#181818;stroke-width:1.0;"/></g><!--link 262ae7a7b008eb3bb13a4093f4552ae9 to 3a2282d5b744381a42bebad37d225e80--><g id="link_262ae7a7b008eb3bb13a4093f4552ae9_3a2282d5b744381a42bebad37d225e80"><path codeLine="108" d="M744.03,360.02 C749.44,370.13 754.84,381.17 759,391.78 C783.17,453.39 798.9588,522.8134 807.7788,567.5234 " fill="none" id="262ae7a7b008eb3bb13a4093f4552ae9-to-3a2282d5b744381a42bebad37d225e80" style="stroke:#181818;stroke-width:1.0;"/><polygon fill="#181818" points="808.94,573.41,811.1225,563.806,807.9723,568.5045,803.2738,565.3543,808.94,573.41" style="stroke:#181818;stroke-width:1.0;"/></g><!--link 262ae7a7b008eb3bb13a4093f4552ae9 to c56da4277af3fd72194853f7abb7b4d3--><g id="link_262ae7a7b008eb3bb13a4093f4552ae9_c56da4277af3fd72194853f7abb7b4d3"><path codeLine="109" d="M685.32,345.01 C668.15,357.56 648.07,374.03 633,391.78 C584.86,448.48 602.93,484.42 551,537.67 C529.4,559.82 505.1928,575.0897 480.2428,587.8397 " fill="none" id="262ae7a7b008eb3bb13a4093f4552ae9-to-c56da4277af3fd72194853f7abb7b4d3" style="stroke:#181818;stroke-width:1.0;"/><polygon fill="#181818" points="474.9,590.57,484.7344,590.0364,479.3523,588.2948,481.094,582.9127,474.9,590.57" style="stroke:#181818;stroke-width:1.0;"/></g><!--link 22b2c251ada236a96eb55134f890bc59 to 262ae7a7b008eb3bb13a4093f4552ae9--><g id="link_22b2c251ada236a96eb55134f890bc59_262ae7a7b008eb3bb13a4093f4552ae9"><path codeLine="110" d="M768.34,162.95 C758.03,197 744.8092,240.6976 734.4692,274.8376 " fill="none" id="22b2c251ada236a96eb55134f890bc59-to-262ae7a7b008eb3bb13a4093f4552ae9" style="stroke:#181818;stroke-width:1.0;"/><polygon fill="#181818" points="732.73,280.58,739.1671,273.1259,734.1793,275.7947,731.5105,270.8069,732.73,280.58" style="stroke:#181818;stroke-width:1.0;"/></g><!--link 22b2c251ada236a96eb55134f890bc59 to 3a2282d5b744381a42bebad37d225e80--><g id="link_22b2c251ada236a96eb55134f890bc59_3a2282d5b744381a42bebad37d225e80"><path codeLine="111" d="M782.85,163.12 C789.59,254.36 805.9687,476.2063 812.6987,567.4563 " fill="none" id="22b2c251ada236a96eb55134f890bc59-to-3a2282d5b744381a42bebad37d225e80" style="stroke:#181818;stroke-width:1.0;"/><polygon fill="#181818" points="813.14,573.44,816.4672,564.1702,812.7722,568.4535,808.4889,564.7586,813.14,573.44" style="stroke:#181818;stroke-width:1.0;"/></g><!--link 22b2c251ada236a96eb55134f890bc59 to c56da4277af3fd72194853f7abb7b4d3--><g id="link_22b2c251ada236a96eb55134f890bc59_c56da4277af3fd72194853f7abb7b4d3"><path codeLine="112" d="M741.34,163.12 C729.62,172.57 716.1,181.51 702,186.89 C686.61,192.76 566.41,184.06 554,194.89 C437.08,296.87 554.41,397.46 488,537.67 C482.02,550.29 477.2287,557.9221 468.3087,568.7321 " fill="none" id="22b2c251ada236a96eb55134f890bc59-to-c56da4277af3fd72194853f7abb7b4d3" style="stroke:#181818;stroke-width:1.0;"/><polygon fill="#181818" points="464.49,573.36,473.3034,568.964,467.6723,569.5034,467.1329,563.8724,464.49,573.36" style="stroke:#181818;stroke-width:1.0;"/></g><!--link b3d218fad4f89557be074aaf070f6230 to 3a2282d5b744381a42bebad37d225e80--><g id="link_b3d218fad4f89557be074aaf070f6230_3a2282d5b744381a42bebad37d225e80"><path codeLine="113" d="M981.59,514.16 C973.33,522.44 964.21,530.75 955,537.67 C927.1,558.64 897.9154,574.5759 870.2254,587.9159 " fill="none" id="b3d218fad4f89557be074aaf070f6230-to-3a2282d5b744381a42bebad37d225e80" style="stroke:#181818;stroke-width:1.0;"/><polygon fill="#181818" points="864.82,590.52,874.6642,590.2174,869.3245,588.3499,871.192,583.0102,864.82,590.52" style="stroke:#181818;stroke-width:1.0;"/></g><!--link 91a3b5d71a93724dbff121fd3f7adc73 to c56da4277af3fd72194853f7abb7b4d3--><g id="link_91a3b5d71a93724dbff121fd3f7adc73_c56da4277af3fd72194853f7abb7b4d3"><path codeLine="114" d="M312.19,514 C321.03,521.87 330.29,530.06 339,537.67 C352.32,549.31 362.342,557.9481 375.682,569.3681 " fill="none" id="91a3b5d71a93724dbff121fd3f7adc73-to-c56da4277af3fd72194853f7abb7b4d3" style="stroke:#181818;stroke-width:1.0;"/><polygon fill="#181818" points="380.24,573.27,376.0044,564.3785,376.4417,570.0184,370.8018,570.4557,380.24,573.27" style="stroke:#181818;stroke-width:1.0;"/></g><!--link ec207b05a852fab3097621b39543fb3c to e46ffa6ea4a4cff79f384b666b2de51e--><g id="link_ec207b05a852fab3097621b39543fb3c_e46ffa6ea4a4cff79f384b666b2de51e"><path codeLine="115" d="M345.79,360.05 C362.12,382.82 379.2121,406.6351 395.5721,429.4351 " fill="none" id="ec207b05a852fab3097621b39543fb3c-to-e46ffa6ea4a4cff79f384b666b2de51e" style="stroke:#181818;stroke-width:1.0;"/><polygon fill="#181818" points="399.07,434.31,397.073,424.6657,396.1551,430.2476,390.5732,429.3296,399.07,434.31" style="stroke:#181818;stroke-width:1.0;"/></g><!--link ec207b05a852fab3097621b39543fb3c to 91a3b5d71a93724dbff121fd3f7adc73--><g id="link_ec207b05a852fab3097621b39543fb3c_91a3b5d71a93724dbff121fd3f7adc73"><path codeLine="116" d="M305.51,360.05 C298.16,382.82 290.7532,405.8001 283.3932,428.6001 " fill="none" id="ec207b05a852fab3097621b39543fb3c-to-91a3b5d71a93724dbff121fd3f7adc73" style="stroke:#181818;stroke-width:1.0;"/><polygon fill="#181818" points="281.55,434.31,288.1214,426.974,283.086,429.5518,280.5082,424.5164,281.55,434.31" style="stroke:#181818;stroke-width:1.0;"/></g><!--link ec207b05a852fab3097621b39543fb3c to c56da4277af3fd72194853f7abb7b4d3--><g id="link_ec207b05a852fab3097621b39543fb3c_c56da4277af3fd72194853f7abb7b4d3"><path codeLine="117" d="M324.36,359.85 C333.55,413.24 351.07,506.64 366,537.67 C372.04,550.23 376.824,557.8911 385.574,568.7911 " fill="none" id="ec207b05a852fab3097621b39543fb3c-to-c56da4277af3fd72194853f7abb7b4d3" style="stroke:#181818;stroke-width:1.0;"/><polygon fill="#181818" points="389.33,573.47,386.8153,563.9476,386.2,569.5709,380.5767,568.9556,389.33,573.47" style="stroke:#181818;stroke-width:1.0;"/></g><!--link e46ffa6ea4a4cff79f384b666b2de51e to c56da4277af3fd72194853f7abb7b4d3--><g id="link_e46ffa6ea4a4cff79f384b666b2de51e_c56da4277af3fd72194853f7abb7b4d3"><path codeLine="118" d="M426.72,514.09 C426.58,532.74 426.4651,549.0202 426.3251,567.6302 " fill="none" id="e46ffa6ea4a4cff79f384b666b2de51e-to-c56da4277af3fd72194853f7abb7b4d3" style="stroke:#181818;stroke-width:1.0;"/><polygon fill="#181818" points="426.28,573.63,430.3476,564.6603,426.3176,568.6301,422.3478,564.6002,426.28,573.63" style="stroke:#181818;stroke-width:1.0;"/></g><!--SRC=[hPNDRcCt38NtVWfZbW46bKYHb3PzaQ8e996S1erZm_Ry04NVlVHrcacGoLmlkhNDmqFoqt5_UDX_tTr_kt_yj3dq-LV_PDiFf_F-QBzysFRJTgHKRIAqRiFOWB8Lf5nIdf3GQFltPkvtX_sZFPwtUNA60HA_mv9w5MumfUMAKce2tFwskRlp_N5tkhlRR3Q_loWbRAIjc55LCeLP4tg7qR68CEbI-lduyBOI6Bf9byNfm34ozf8QUY6ARzfIEVln_ARIgR4Fdeop6bOBfz4k0pYmPRxsx8V3svxO0Iee3Ia5Q-u5XeskA0f0LjDIkTkh_S3lG8LSlMlnseXaM9BIkoT9pe3Nsgwx-yUdqkUp_6aF1pkUheUPMjtdPAQMfK-5sDri8fwmkSJ2NXv6EDDCEX8ZEWhDEJ6MMXrYG_2q8_iIF_tFxp_VstwvjwzFJQio8UieSynEZjJYHWKqwunh4Rzg2cOPaJa1uoWQB6G4ZtcryKoUhqkweFU3emP6Cs3hsW6vDxP1bF6oiZGcNGqlcFfn_tX-Dlt2zkVJywvI8cvSGz8w2tATh6PQosNpGFxAzWM2GIgvDnGeEjmpP5TqwJhbPn23kBjvArGv-1yo9D4mzqGJCEFx45kyfY2OUYNmFZ0rOSWZ7aL17pYNokKGRryEG9jH8hcrAgd7pjCiQasqAANwFiMJM0DTaUxeAf1RgNGPSuJpelWpYgsmUsVhfPVfBisnbi7C0zGY9Dwd-6oxmqC_sxb_EZrdZ0V6e7MGiF25K8guWGlFWS1hbEEJUU7AEpOSQOm1oLZnKcfKtfpd5HId_V5ylmkTQsTbKUSP6SCKAomfc1LeHHq89UNNwJOYcB36YvlKun6NvRa6gH41FYo_VzqH-d566qCnc6eHKRbmfscHUR7-QqG5n_Rj_CVXk9zs2gFV1rZDrO_wyTVLKDgifi3_ARC6rsOrjnUPjMOtogmETPlC-b1hkRN8h3MxKMPzg9jaLeTQ_SUwpSrgiDxcPZKg5vcrVBfHPitpZJBhGwt5wKqo_m80]--></g></svg>